<?xml version="1.0" ?><!-- Uploaded to: SVG Repo, www.svgrepo.com, Generator: SVG Repo Mixer Tools -->
<svg fill="#000000" width="800px" height="800px" viewBox="0 0 100 100" data-name="Layer 1" id="Layer_1" xmlns="http://www.w3.org/2000/svg"><path d="M84,80.36H16.19a1.5,1.5,0,0,1-1.5-1.5V22.29a1.5,1.5,0,0,1,1.5-1.5H84a1.5,1.5,0,0,1,1.5,1.5V78.86A1.5,1.5,0,0,1,84,80.36Zm-66.28-3H82.47V23.79H17.69Z"/><path d="M57.81,43.54A1.52,1.52,0,0,1,56.29,42a1.11,1.11,0,0,1,0-.19V23.79H43.51v18a1.53,1.53,0,0,1,0,.3,1.48,1.48,0,0,1-1.47,1.5A1.56,1.56,0,0,1,40.51,42V22.29a1.5,1.5,0,0,1,1.5-1.5h15.8a1.5,1.5,0,0,1,1.5,1.5V42A1.51,1.51,0,0,1,57.81,43.54Z"/><path d="M57.78,43.54A1.51,1.51,0,0,1,56.61,43L48.74,33.1a1.5,1.5,0,1,1,2.34-1.87L59,41.1a1.51,1.51,0,0,1-1.18,2.44Z"/><path d="M42.07,43.54a1.51,1.51,0,0,1-.93-.33,1.48,1.48,0,0,1-.24-2.1l7.87-10A1.5,1.5,0,0,1,51.12,33L43.25,43A1.51,1.51,0,0,1,42.07,43.54Z"/><path d="M38.93,74.14H22.64a1.5,1.5,0,0,1,0-3H38.93a1.5,1.5,0,0,1,0,3Z"/></svg>