<svg width="80px" height="80px" viewBox="-4 0 32 32" version="1.1" xmlns="http://www.w3.org/2000/svg">
<path d="M4.031 8.844c0-1.125-0.875-2-2-2s-2.031 0.875-2.031 2 0.906 2.031 2.031 2.031 2-0.906 2-2.031zM6.375 10.5h17.625v-3.25h-17.625v3.25zM4.031 16c0-1.125-0.875-2.031-2-2.031s-2.031 0.906-2.031 2.031 0.906 2 2.031 2 2-0.875 2-2zM6.375 17.625h17.625v-3.25h-17.625v3.25zM4.031 23.125c0-1.125-0.875-2-2-2s-2.031 0.875-2.031 2 0.906 2.031 2.031 2.031 2-0.906 2-2.031zM6.375 24.719h17.625v-3.219h-17.625v3.219z"></path>
</svg>