<?xml version="1.0" encoding="iso-8859-1"?>
<svg fill="#000000" version="1.1" id="Capa_1" xmlns="http://www.w3.org/2000/svg" xmlns:xlink="http://www.w3.org/1999/xlink"
	 width="800px" height="800px" viewBox="0 0 510.827 510.828"
	 xml:space="preserve">
<g>
	<g>
		<path d="M335.46,129.996c-33.863,0-65.45,9.616-92.261,26.232c85.441,4.735,153.238,75.504,153.238,162.137
			c0,72.352-47.339,133.645-112.73,154.629c16.348,5.044,33.712,7.753,51.729,7.753c96.873,0,175.391-78.517,175.391-175.366
			C510.827,208.519,432.31,129.996,335.46,129.996z"/>
		<polygon points="114.202,69 94.987,30.081 75.796,69 32.848,75.242 63.927,105.544 56.582,148.317 94.987,128.11 133.411,148.317 
			126.078,105.544 157.168,75.242 		"/>
		<polygon points="280.554,307.097 311.639,276.806 268.69,270.559 249.464,231.633 230.272,270.559 187.324,276.806 
			218.403,307.097 211.058,349.87 249.464,329.668 287.888,349.87 		"/>
		<polygon points="81.36,401.458 62.14,362.528 42.948,401.458 0,407.695 31.079,437.986 23.734,480.747 62.14,460.557 
			100.563,480.747 93.23,437.986 124.309,407.695 		"/>
	</g>
</g>
</svg>